<svg width="691" height="589" viewBox="0 0 691 589" fill="none" xmlns="http://www.w3.org/2000/svg">
<g filter="url(#filter0_f_718_41)">
<path fill-rule="evenodd" clip-rule="evenodd" d="M368.278 309.858C361.844 313.451 354.739 318.517 353.925 325.449C352.206 340.096 366.663 355.709 361.287 369.426C357.092 380.128 341.387 392.602 329.765 387.094C311.629 378.5 313.123 352.877 298.576 339.707C293.174 334.817 283.583 337.268 276.483 338.858C253.103 344.094 217.131 381.015 208.996 359.77C199.502 334.976 248.695 325.068 262.954 303.526C265.974 298.963 260.764 292.117 256.473 288.042C239.619 272.032 209.179 265.772 201.441 245.096C196.903 232.969 217.642 217.54 231.299 220.771C257.188 226.895 267.476 265.585 293.892 266.968C310.189 267.821 294.336 236.48 303.049 224.526C311.511 212.916 326.016 204.632 341.338 201.872C356.718 199.102 376.507 198.937 388.301 209.173C400.277 219.568 392.201 238.387 399.025 251.94C405.343 264.488 432.756 273.067 426.452 284.942C417.093 302.571 386.626 299.61 368.278 309.858Z" fill="#4C0CCE"/>
</g>
<g filter="url(#filter1_f_718_41)">
<path fill-rule="evenodd" clip-rule="evenodd" d="M391.486 250.474C410.624 243.869 437.557 219.574 449.264 235.57C463.208 254.622 419.22 278.705 427.99 300.348C436.957 322.478 486.247 313.622 490.357 336.985C493.69 355.929 459.177 361.708 439.438 365.418C424.433 368.238 410.939 356.747 395.749 354.769C387.117 353.645 378.937 356.764 370.239 356.406C357.662 355.888 340.481 362.211 333.479 352.204C326.315 341.965 346.07 329.288 342.929 317.376C338.59 300.926 308.226 292.261 313.409 276.103C318.062 261.594 344.14 271.596 359.199 266.653C370.943 262.798 379.808 254.504 391.486 250.474Z" fill="#D92390"/>
</g>
<defs>
<filter id="filter0_f_718_41" x="0.804382" y="0.255371" width="626.583" height="588.186" filterUnits="userSpaceOnUse" color-interpolation-filters="sRGB">
<feFlood flood-opacity="0" result="BackgroundImageFix"/>
<feBlend mode="normal" in="SourceGraphic" in2="BackgroundImageFix" result="shape"/>
<feGaussianBlur stdDeviation="100" result="effect1_foregroundBlur_718_41"/>
</filter>
<filter id="filter1_f_718_41" x="112.815" y="30.2137" width="577.767" height="535.647" filterUnits="userSpaceOnUse" color-interpolation-filters="sRGB">
<feFlood flood-opacity="0" result="BackgroundImageFix"/>
<feBlend mode="normal" in="SourceGraphic" in2="BackgroundImageFix" result="shape"/>
<feGaussianBlur stdDeviation="100" result="effect1_foregroundBlur_718_41"/>
</filter>
</defs>
</svg>
