<svg width="101" height="98" viewBox="0 0 101 98" fill="none" xmlns="http://www.w3.org/2000/svg">
<path fill-rule="evenodd" clip-rule="evenodd" d="M50.0379 0C22.4002 0 0 22.4002 0 50.0379C0 72.1421 14.3331 90.9 34.2198 97.5222C36.7232 97.9738 37.6263 96.4336 37.6263 95.1092C37.6263 93.9202 37.5861 90.7696 37.5711 86.6006C23.6494 89.6207 20.7095 79.8881 20.7095 79.8881C18.4419 74.1087 15.1559 72.5685 15.1559 72.5685C10.6156 69.4631 15.502 69.5333 15.502 69.5333C20.5289 69.8845 23.1627 74.6906 23.1627 74.6906C27.6277 82.3363 34.882 80.1289 37.7216 78.8496C38.1781 75.6137 39.4825 73.4063 40.9073 72.1571C29.8 70.8979 18.1208 66.6035 18.1208 47.4241C18.1208 41.9708 20.0724 37.4958 23.258 34.0041C22.7513 32.7348 21.0205 27.6428 23.7547 20.7597C23.7547 20.7597 27.9538 19.4101 37.5109 25.8819C41.5143 24.7731 45.7836 24.2163 50.0329 24.1962C54.2922 24.2163 58.5665 24.7731 62.5549 25.8819C72.117 19.4051 76.3111 20.7597 76.3111 20.7597C79.0452 27.6428 77.3295 32.7348 76.8077 34.0041C80.0185 37.4958 81.945 41.9658 81.945 47.4241C81.945 66.6537 70.2557 70.8778 59.1083 72.117C60.8893 73.6622 62.4947 76.7124 62.4947 81.3781C62.4947 88.0705 62.4345 93.4686 62.4345 95.1092C62.4345 96.4486 63.3275 98.0039 65.8811 97.5122C85.7578 90.88 100.076 72.1371 100.076 50.0379C100.076 22.4002 77.6756 0 50.0379 0V0Z" fill="white"/>
</svg>
