<svg width="100" height="100" viewBox="0 0 100 100" fill="none" xmlns="http://www.w3.org/2000/svg">
<rect width="100" height="100" rx="50" fill="#EEEEEE"/>
<path d="M47.0625 18.5625C32.6875 20.125 21.125 31.6875 19.5625 45.75C18 60.4375 26.4375 73.5625 39.25 78.5625C40.1875 78.875 41.125 78.25 41.125 77V72C41.125 72 39.875 72.3125 38.3125 72.3125C33.9375 72.3125 32.0625 68.5625 31.75 66.375C31.4375 65.125 30.8125 64.1875 29.875 63.25C28.9375 62.9375 28.625 62.9375 28.625 62.625C28.625 62 29.5625 62 29.875 62C31.75 62 33.3125 64.1875 33.9375 65.125C35.5 67.625 37.375 68.25 38.3125 68.25C39.5625 68.25 40.5 67.9375 41.125 67.625C41.4375 65.4375 42.375 63.25 44.25 62C37.0625 60.4375 31.75 56.375 31.75 49.5C31.75 46.0625 33.3125 42.625 35.5 40.125C35.1875 39.5 34.875 37.9375 34.875 35.75C34.875 34.5 34.875 32.9375 35.5 31.6875C35.5 31.0625 36.125 30.75 36.4375 30.75H36.75C38.3125 31.0625 41.4375 32 44.25 34.8125C46.125 34.1875 48.3125 33.875 50.5 33.875C52.6875 33.875 54.875 34.1875 56.75 34.8125C59.5625 32 63 31.0625 64.5625 30.75H64.875C65.5 30.75 65.8125 31.0625 66.125 31.6875C66.125 32.9375 66.125 34.5 66.125 35.75C66.125 38.25 65.8125 39.5 65.5 40.125C67.6875 42.625 69.25 45.75 69.25 49.5C69.25 56.375 63.9375 60.4375 56.75 62C58.625 63.5625 59.875 66.375 59.875 69.1875V77.3125C59.875 78.25 60.8125 79.1875 62.0625 78.875C73.625 74.1875 81.75 62.9375 81.75 49.8125C81.75 31.0625 65.8125 16.375 47.0625 18.5625Z" fill="black"/>
</svg>
