<svg width="100" height="100" viewBox="0 0 100 100" fill="none" xmlns="http://www.w3.org/2000/svg">
<rect width="100" height="100" rx="50" fill="#EEEEEE"/>
<path d="M38 21.375C29.3719 21.375 22.375 28.3719 22.375 37V62C22.375 70.6281 29.3719 77.625 38 77.625H63C71.6281 77.625 78.625 70.6281 78.625 62V37C78.625 28.3719 71.6281 21.375 63 21.375H38ZM69.25 27.625C70.975 27.625 72.375 29.025 72.375 30.75C72.375 32.475 70.975 33.875 69.25 33.875C67.525 33.875 66.125 32.475 66.125 30.75C66.125 29.025 67.525 27.625 69.25 27.625ZM50.5 33.875C59.1281 33.875 66.125 40.8719 66.125 49.5C66.125 58.1281 59.1281 65.125 50.5 65.125C41.8719 65.125 34.875 58.1281 34.875 49.5C34.875 40.8719 41.8719 33.875 50.5 33.875ZM50.5 40.125C48.0136 40.125 45.629 41.1127 43.8709 42.8709C42.1127 44.629 41.125 47.0136 41.125 49.5C41.125 51.9864 42.1127 54.371 43.8709 56.1291C45.629 57.8873 48.0136 58.875 50.5 58.875C52.9864 58.875 55.371 57.8873 57.1291 56.1291C58.8873 54.371 59.875 51.9864 59.875 49.5C59.875 47.0136 58.8873 44.629 57.1291 42.8709C55.371 41.1127 52.9864 40.125 50.5 40.125Z" fill="black"/>
</svg>
