<svg width="101" height="101" viewBox="0 0 101 101" fill="none" xmlns="http://www.w3.org/2000/svg">
<path d="M99.7535 29.5871C99.6924 25.3802 98.9143 21.2066 97.425 17.2721C94.8186 10.5533 89.5114 5.24053 82.7926 2.63972C78.9081 1.17815 74.8012 0.394569 70.6444 0.305652C65.2982 0.0666879 63.6033 0 50.0324 0C36.4614 0 34.722 3.72646e-07 29.4148 0.305652C25.2635 0.394569 21.1566 1.17815 17.2721 2.63972C10.5533 5.24053 5.24053 10.5533 2.63972 17.2721C1.17815 21.1566 0.389011 25.2635 0.311209 29.4148C0.0722448 34.7665 0 36.4614 0 50.0324C0 63.6033 -4.14051e-08 65.3372 0.311209 70.6499C0.394568 74.8068 1.17815 78.9081 2.63972 82.8037C5.24609 89.517 10.5533 94.8297 17.2776 97.4306C21.1455 98.9421 25.2524 99.7979 29.4203 99.9313C34.772 100.17 36.467 100.243 50.0379 100.243C63.6088 100.243 65.3483 100.243 70.6555 99.9313C74.8068 99.848 78.9136 99.0644 82.8037 97.6028C89.5225 94.9964 94.8297 89.6837 97.4361 82.9705C98.8977 79.0803 99.6812 74.9791 99.7646 70.8166C100.004 65.4705 100.076 63.7755 100.076 50.1991C100.065 36.6281 100.065 34.9054 99.7535 29.5871V29.5871ZM49.999 75.6959C35.8057 75.6959 24.3076 64.1979 24.3076 50.0046C24.3076 35.8112 35.8057 24.3132 49.999 24.3132C64.1812 24.3132 75.6904 35.8112 75.6904 50.0046C75.6904 64.1979 64.1812 75.6959 49.999 75.6959ZM76.7129 29.3536C73.3952 29.3536 70.7222 26.675 70.7222 23.3629C70.7222 20.0507 73.3952 17.3721 76.7129 17.3721C80.0195 17.3721 82.6982 20.0507 82.6982 23.3629C82.6982 26.675 80.0195 29.3536 76.7129 29.3536Z" fill="white"/>
<path d="M49.9989 66.6931C59.2158 66.6931 66.6875 59.2214 66.6875 50.0045C66.6875 40.7877 59.2158 33.316 49.9989 33.316C40.7821 33.316 33.3104 40.7877 33.3104 50.0045C33.3104 59.2214 40.7821 66.6931 49.9989 66.6931Z" fill="white"/>
</svg>
