<svg width="100" height="100" viewBox="0 0 100 100" fill="none" xmlns="http://www.w3.org/2000/svg">
<rect width="100" height="100" rx="50" fill="#EEEEEE"/>
<path d="M72.375 21.375H28.625C25.1719 21.375 22.375 24.1719 22.375 27.625V71.375C22.375 74.8281 25.1719 77.625 28.625 77.625H72.375C75.8281 77.625 78.625 74.8281 78.625 71.375V27.625C78.625 24.1719 75.8281 21.375 72.375 21.375ZM37.1812 65.125C35.0031 65.125 33.2375 63.3594 33.2375 61.1812V47.1906C33.2406 45.0156 35.0062 43.25 37.1812 43.25C39.3594 43.25 41.125 45.0156 41.125 47.1938V61.1844C41.125 63.3594 39.3594 65.125 37.1812 65.125ZM37.0437 39.2406C34.6344 39.2406 33.025 37.6344 33.025 35.4906C33.025 33.3469 34.6312 31.7406 37.3094 31.7406C39.7187 31.7406 41.3281 33.3469 41.3281 35.4906C41.3281 37.6344 39.7219 39.2406 37.0437 39.2406ZM65.4344 65.125C63.3281 65.125 61.6187 63.4156 61.6187 61.3094V53.1687C61.6187 49.8625 59.5844 49.5 58.8219 49.5C58.0594 49.5 55.5156 49.6094 55.5156 53.1687V61.3094C55.5156 63.4156 53.8062 65.125 51.7 65.125H51.4469C49.3406 65.125 47.6312 63.4156 47.6312 61.3094V47.1938C47.6312 45.0156 49.3969 43.25 51.575 43.25C53.7531 43.25 55.5187 45.0156 55.5187 47.1938C55.5187 47.1938 56.4 43.25 62.3875 43.25C66.1969 43.25 69.25 46.3031 69.25 53.1687V61.3094C69.25 63.4156 67.5406 65.125 65.4344 65.125Z" fill="black"/>
</svg>
