<svg width="101" height="102" viewBox="0 0 101 102" fill="none" xmlns="http://www.w3.org/2000/svg">
<path d="M94.9495 0.933899H5.99318C2.91863 0.933899 0.433411 3.42467 0.433411 6.49367V95.4499C0.433411 98.5189 2.91863 101.01 5.99318 101.01H94.9495C98.024 101.01 100.509 98.5189 100.509 95.4499V6.49367C100.509 3.42467 98.024 0.933899 94.9495 0.933899ZM30.117 86.204H15.2613V38.4456H30.117V86.204ZM22.6892 31.924C17.93 31.924 14.0826 28.0656 14.0826 23.3175C14.0826 18.5695 17.9244 14.711 22.6892 14.711C27.4372 14.711 31.2957 18.5639 31.2957 23.3175C31.2957 28.0711 27.4372 31.924 22.6892 31.924ZM85.7091 86.204H70.8701V62.9809C70.8701 57.4434 70.77 50.3213 63.1531 50.3213C55.4251 50.3213 54.252 56.3592 54.252 62.5917V86.2096H39.4241V38.4512H53.6571V44.9784H53.8628C55.8365 41.2255 60.6846 37.267 67.8956 37.267C82.9292 37.267 85.7036 47.1522 85.7036 60.0175V86.204H85.7091Z" fill="white"/>
</svg>
