<svg width="300" height="132" viewBox="0 0 300 132" fill="none" xmlns="http://www.w3.org/2000/svg">
<path d="M26.1204 94.4687V41.7055H0V33.0858H35.5237V85.849H61.6441V94.4687H26.1204ZM29.516 18.1972C27.0781 18.1972 24.945 17.3265 23.1165 15.5852C21.3752 13.7567 20.5045 11.6236 20.5045 9.18566C20.5045 6.66069 21.3752 4.52753 23.1165 2.78617C24.945 1.04481 27.0781 0.174128 29.516 0.174128C32.041 0.174128 34.1742 1.04481 35.9155 2.78617C37.6569 4.52753 38.5276 6.66069 38.5276 9.18566C38.5276 11.6236 37.6569 13.7567 35.9155 15.5852C34.1742 17.3265 32.041 18.1972 29.516 18.1972Z" fill="#EEEEEE"/>
<path d="M88.6134 131.69C84.9855 131.69 81.4303 131.255 77.9476 130.384C74.4648 129.586 71.1272 128.353 67.9347 126.684L70.7644 119.827C76.1336 122.802 82.0107 124.289 88.3957 124.289C99.5694 124.289 105.156 119.21 105.156 109.053V101.761C99.4969 105.751 93.5835 107.747 87.4162 107.747C82.8451 107.747 78.8908 106.658 75.5532 104.481C72.2156 102.232 69.6035 99.1486 67.7171 95.2305C65.9032 91.2399 64.9962 86.6326 64.9962 81.4085C64.9962 76.1844 65.9032 71.6134 67.7171 67.6953C69.6035 63.7047 72.2156 60.621 75.5532 58.4443C78.8908 56.1951 82.8451 55.0705 87.4162 55.0705C94.0188 55.0705 100.295 57.3197 106.245 61.8182L107.115 56.3765H112.992V110.032C112.992 116.852 110.961 122.149 106.898 125.922C102.834 129.767 96.7397 131.69 88.6134 131.69ZM88.7222 100.346C91.4794 100.346 94.3091 99.8379 97.2113 98.8221C100.114 97.8063 102.762 96.3914 105.156 94.5775V68.2395C102.762 66.4256 100.114 65.0107 97.2113 63.9949C94.3091 62.9791 91.4794 62.4712 88.7222 62.4712C83.8609 62.4712 80.0154 64.2126 77.1857 67.6953C74.4286 71.178 73.05 75.7491 73.05 81.4085C73.05 87.0679 74.4286 91.639 77.1857 95.1217C80.0154 98.6044 83.8609 100.346 88.7222 100.346Z" fill="#EEEEEE"/>
<path d="M20.3739 9.14213C20.3739 4.09307 24.467 0 29.516 0C34.5651 0 38.6582 4.09307 38.6582 9.14213C38.6582 14.1912 34.5651 18.2843 29.516 18.2843C24.467 18.2843 20.3739 14.1912 20.3739 9.14213Z" fill="#9EB414"/>
<path d="M138.09 94.4687L135.869 80.3202H137.785L139.417 91.0295L141.202 81.8656H143.009L144.794 91.0295L146.426 80.3202H148.233L146.013 94.4687H143.945L142.073 85.0001L140.201 94.4687H138.09Z" fill="#9EB414"/>
<path d="M155.266 94.7299C153.495 94.7299 152.102 94.251 151.086 93.2933C150.071 92.321 149.563 91.0005 149.563 89.3317C149.563 88.2433 149.78 87.2928 150.216 86.4802C150.651 85.6676 151.26 85.0436 152.044 84.6082C152.842 84.1584 153.771 83.9335 154.83 83.9335C155.846 83.9335 156.724 84.1439 157.464 84.5647C158.219 84.971 158.799 85.5587 159.205 86.3278C159.612 87.0824 159.815 87.9749 159.815 89.0052C159.815 89.1648 159.808 89.3317 159.793 89.5058C159.793 89.6654 159.779 89.8323 159.75 90.0065H151.565C151.681 90.9787 152.059 91.7188 152.697 92.2267C153.336 92.7201 154.206 92.9668 155.309 92.9668C156.47 92.9668 157.587 92.6257 158.661 91.9437L159.445 93.4674C158.168 94.3091 156.775 94.7299 155.266 94.7299ZM151.609 88.3957H157.878C157.762 87.525 157.435 86.8575 156.898 86.3931C156.376 85.9143 155.679 85.6748 154.808 85.6748C153.938 85.6748 153.219 85.9143 152.654 86.3931C152.102 86.872 151.754 87.5395 151.609 88.3957Z" fill="#9EB414"/>
<path d="M167.936 94.7299C166.702 94.7299 165.512 94.3091 164.366 93.4674L164.17 94.4687H162.712V79.0141H164.671V84.9783C165.715 84.2817 166.804 83.9335 167.936 83.9335C169.3 83.9335 170.388 84.4196 171.201 85.3919C172.013 86.3641 172.42 87.6774 172.42 89.3317C172.42 90.986 172.013 92.2992 171.201 93.2715C170.388 94.2438 169.3 94.7299 167.936 94.7299ZM167.522 92.9015C168.451 92.9015 169.162 92.5895 169.655 91.9655C170.163 91.3415 170.417 90.4636 170.417 89.3317C170.417 88.1853 170.163 87.3001 169.655 86.6761C169.162 86.0521 168.451 85.7401 167.522 85.7401C166.535 85.7401 165.585 86.0521 164.671 86.6761V91.9873C165.585 92.5967 166.535 92.9015 167.522 92.9015Z" fill="#9EB414"/>
<path d="M187.943 94.4687V80.3202H191.556C195.692 80.3202 197.76 82.6782 197.76 87.3944C197.76 92.1106 195.721 94.4687 191.643 94.4687H187.943ZM189.945 92.5967H191.426C192.906 92.5967 193.987 92.1759 194.669 91.3342C195.365 90.4926 195.714 89.1793 195.714 87.3944C195.714 85.6095 195.365 84.2963 194.669 83.4546C193.987 82.6129 192.906 82.1921 191.426 82.1921H189.945V92.5967Z" fill="#9EB414"/>
<path d="M205.772 94.7299C204.001 94.7299 202.608 94.251 201.592 93.2933C200.577 92.321 200.069 91.0005 200.069 89.3317C200.069 88.2433 200.286 87.2928 200.722 86.4802C201.157 85.6676 201.767 85.0436 202.55 84.6082C203.348 84.1584 204.277 83.9335 205.336 83.9335C206.352 83.9335 207.23 84.1439 207.97 84.5647C208.725 84.971 209.305 85.5587 209.712 86.3278C210.118 87.0824 210.321 87.9749 210.321 89.0052C210.321 89.1648 210.314 89.3317 210.299 89.5058C210.299 89.6654 210.285 89.8323 210.256 90.0065H202.071C202.187 90.9787 202.565 91.7188 203.203 92.2267C203.842 92.7201 204.712 92.9668 205.815 92.9668C206.976 92.9668 208.094 92.6257 209.167 91.9437L209.951 93.4674C208.674 94.3091 207.281 94.7299 205.772 94.7299ZM202.115 88.3957H208.384C208.268 87.525 207.941 86.8575 207.404 86.3931C206.882 85.9143 206.185 85.6748 205.315 85.6748C204.444 85.6748 203.726 85.9143 203.16 86.3931C202.608 86.872 202.26 87.5395 202.115 88.3957Z" fill="#9EB414"/>
<path d="M216.722 94.4687L212.63 84.1947H214.72L217.876 92.2267L221.01 84.1947H222.991L218.899 94.4687H216.722Z" fill="#9EB414"/>
<path d="M231.025 94.7299C229.254 94.7299 227.861 94.251 226.846 93.2933C225.83 92.321 225.322 91.0005 225.322 89.3317C225.322 88.2433 225.54 87.2928 225.975 86.4802C226.41 85.6676 227.02 85.0436 227.803 84.6082C228.601 84.1584 229.53 83.9335 230.59 83.9335C231.605 83.9335 232.483 84.1439 233.223 84.5647C233.978 84.971 234.558 85.5587 234.965 86.3278C235.371 87.0824 235.574 87.9749 235.574 89.0052C235.574 89.1648 235.567 89.3317 235.552 89.5058C235.552 89.6654 235.538 89.8323 235.509 90.0065H227.324C227.441 90.9787 227.818 91.7188 228.456 92.2267C229.095 92.7201 229.966 92.9668 231.068 92.9668C232.229 92.9668 233.347 92.6257 234.421 91.9437L235.204 93.4674C233.927 94.3091 232.534 94.7299 231.025 94.7299ZM227.368 88.3957H233.637C233.521 87.525 233.194 86.8575 232.657 86.3931C232.135 85.9143 231.438 85.6748 230.568 85.6748C229.697 85.6748 228.979 85.9143 228.413 86.3931C227.861 86.872 227.513 87.5395 227.368 88.3957Z" fill="#9EB414"/>
<path d="M245.458 94.7299C242.875 94.7299 241.584 93.4311 241.584 90.8336V80.799H237.361V79.0141H243.543V90.5289C243.543 91.3705 243.709 91.98 244.043 92.3573C244.377 92.7201 244.928 92.9015 245.697 92.9015C246.597 92.9015 247.446 92.6765 248.244 92.2267L248.767 93.9245C247.78 94.4614 246.677 94.7299 245.458 94.7299Z" fill="#9EB414"/>
<path d="M255.69 94.7299C254.645 94.7299 253.731 94.505 252.948 94.0551C252.164 93.6053 251.555 92.974 251.119 92.1614C250.684 91.3488 250.466 90.4055 250.466 89.3317C250.466 88.2578 250.684 87.3146 251.119 86.502C251.555 85.6893 252.164 85.0581 252.948 84.6082C253.731 84.1584 254.645 83.9335 255.69 83.9335C256.735 83.9335 257.649 84.1584 258.433 84.6082C259.216 85.0581 259.826 85.6893 260.261 86.502C260.697 87.3146 260.914 88.2578 260.914 89.3317C260.914 90.4055 260.697 91.3488 260.261 92.1614C259.826 92.974 259.216 93.6053 258.433 94.0551C257.649 94.505 256.735 94.7299 255.69 94.7299ZM255.69 92.9015C256.692 92.9015 257.475 92.5895 258.041 91.9655C258.622 91.327 258.912 90.4491 258.912 89.3317C258.912 88.2143 258.622 87.3364 258.041 86.6979C257.475 86.0594 256.692 85.7401 255.69 85.7401C254.689 85.7401 253.898 86.0594 253.318 86.6979C252.752 87.3364 252.469 88.2143 252.469 89.3317C252.469 90.4491 252.752 91.327 253.318 91.9655C253.898 92.5895 254.689 92.9015 255.69 92.9015Z" fill="#9EB414"/>
<path d="M263.724 99.0398V84.1947H265.182L265.378 85.196C266.525 84.3543 267.715 83.9335 268.948 83.9335C270.312 83.9335 271.4 84.4196 272.213 85.3919C273.026 86.3641 273.432 87.6774 273.432 89.3317C273.432 90.986 273.026 92.2992 272.213 93.2715C271.4 94.2438 270.312 94.7299 268.948 94.7299C267.816 94.7299 266.728 94.3744 265.683 93.6633V99.0398H263.724ZM268.534 92.9015C269.463 92.9015 270.174 92.5895 270.668 91.9655C271.176 91.3415 271.429 90.4636 271.429 89.3317C271.429 88.1853 271.176 87.3001 270.668 86.6761C270.174 86.0521 269.463 85.7401 268.534 85.7401C267.548 85.7401 266.597 86.0521 265.683 86.6761V91.9873C266.597 92.5967 267.548 92.9015 268.534 92.9015Z" fill="#9EB414"/>
<path d="M281.531 94.7299C279.761 94.7299 278.368 94.251 277.352 93.2933C276.336 92.321 275.828 91.0005 275.828 89.3317C275.828 88.2433 276.046 87.2928 276.481 86.4802C276.916 85.6676 277.526 85.0436 278.31 84.6082C279.108 84.1584 280.036 83.9335 281.096 83.9335C282.112 83.9335 282.989 84.1439 283.73 84.5647C284.484 84.971 285.065 85.5587 285.471 86.3278C285.877 87.0824 286.08 87.9749 286.08 89.0052C286.08 89.1648 286.073 89.3317 286.059 89.5058C286.059 89.6654 286.044 89.8323 286.015 90.0065H277.831C277.947 90.9787 278.324 91.7188 278.963 92.2267C279.601 92.7201 280.472 92.9668 281.575 92.9668C282.735 92.9668 283.853 92.6257 284.927 91.9437L285.71 93.4674C284.433 94.3091 283.04 94.7299 281.531 94.7299ZM277.874 88.3957H284.143C284.027 87.525 283.7 86.8575 283.164 86.3931C282.641 85.9143 281.945 85.6748 281.074 85.6748C280.203 85.6748 279.485 85.9143 278.919 86.3931C278.368 86.872 278.019 87.5395 277.874 88.3957Z" fill="#9EB414"/>
<path d="M289.826 94.4687V84.1947H291.371L291.611 85.8272C292.743 84.5647 294.136 83.9335 295.79 83.9335C296.791 83.9335 297.619 84.1656 298.272 84.63L297.531 86.3496C296.951 85.9578 296.313 85.7619 295.616 85.7619C294.136 85.7619 292.859 86.4729 291.785 87.8951V94.4687H289.826Z" fill="#9EB414"/>
<path d="M136.181 45.2753V42.6415H139.94V32.3457H136.181V29.7119H146.572V32.3457H142.813V42.6415H146.572V45.2753H136.181Z" fill="#EEEEEE"/>
<path d="M154.835 50.5908C153.973 50.5908 153.143 50.4871 152.345 50.2795C151.562 50.088 150.788 49.7687 150.022 49.3218L150.932 46.9993C151.491 47.3345 152.089 47.5819 152.728 47.7415C153.366 47.9171 154.005 48.0049 154.643 48.0049C155.649 48.0049 156.383 47.7974 156.846 47.3824C157.325 46.9833 157.564 46.3687 157.564 45.5387V44.3894C157.054 44.7086 156.535 44.9481 156.008 45.1077C155.497 45.2514 154.978 45.3232 154.452 45.3232C153.462 45.3232 152.592 45.0758 151.842 44.5809C151.108 44.0861 150.541 43.3997 150.142 42.5218C149.743 41.6439 149.543 40.6223 149.543 39.457C149.543 38.2917 149.743 37.2701 150.142 36.3922C150.541 35.5143 151.108 34.8279 151.842 34.3331C152.592 33.8382 153.462 33.5908 154.452 33.5908C155.681 33.5908 156.886 34.0058 158.067 34.8359L158.307 33.8781H160.39V45.7302C160.39 47.3105 159.911 48.5157 158.953 49.3457C158.011 50.1758 156.639 50.5908 154.835 50.5908ZM155.17 42.7373C155.984 42.7373 156.782 42.5218 157.564 42.0908V36.8232C156.782 36.3922 155.984 36.1767 155.17 36.1767C154.244 36.1767 153.55 36.464 153.087 37.0387C152.624 37.5974 152.392 38.4035 152.392 39.457C152.392 40.5105 152.624 41.3246 153.087 41.8993C153.55 42.4579 154.244 42.7373 155.17 42.7373Z" fill="#EEEEEE"/>
<path d="M169.155 45.5626C168.006 45.5626 166.992 45.3152 166.114 44.8204C165.236 44.3096 164.55 43.6072 164.055 42.7133C163.56 41.8035 163.313 40.7579 163.313 39.5767C163.313 38.3795 163.56 37.334 164.055 36.4401C164.55 35.5462 165.236 34.8518 166.114 34.357C166.992 33.8462 168.006 33.5908 169.155 33.5908C170.304 33.5908 171.318 33.8462 172.196 34.357C173.074 34.8518 173.76 35.5462 174.255 36.4401C174.75 37.334 174.997 38.3795 174.997 39.5767C174.997 40.7579 174.75 41.8035 174.255 42.7133C173.76 43.6072 173.074 44.3096 172.196 44.8204C171.318 45.3152 170.304 45.5626 169.155 45.5626ZM169.155 42.9767C170.081 42.9767 170.807 42.6814 171.334 42.0908C171.861 41.4842 172.124 40.6462 172.124 39.5767C172.124 38.5072 171.861 37.6772 171.334 37.0866C170.807 36.48 170.081 36.1767 169.155 36.1767C168.229 36.1767 167.503 36.48 166.976 37.0866C166.449 37.6772 166.186 38.5072 166.186 39.5767C166.186 40.6462 166.449 41.4842 166.976 42.0908C167.503 42.6814 168.229 42.9767 169.155 42.9767Z" fill="#EEEEEE"/>
<path d="M178.71 45.2753V33.8781H180.913L181.2 35.4584C181.791 34.8039 182.43 34.3331 183.116 34.0457C183.802 33.7424 184.577 33.5908 185.439 33.5908C186.604 33.5908 187.609 33.8941 188.455 34.5007L187.402 36.9429C187.051 36.6875 186.692 36.5039 186.324 36.3922C185.973 36.2645 185.59 36.2007 185.175 36.2007C183.818 36.2007 182.605 36.8551 181.536 38.164V45.2753H178.71Z" fill="#EEEEEE"/>
<path d="M136.253 72.7017V57.1383H141.831C143.508 57.1383 144.745 57.4735 145.543 58.144C146.357 58.8144 146.764 59.812 146.764 61.1369C146.764 61.9989 146.588 62.7092 146.237 63.2679C145.886 63.8266 145.335 64.2416 144.585 64.513V64.5609C146.325 65.0717 147.195 66.3327 147.195 68.344C147.195 71.2491 145.511 72.7017 142.143 72.7017H136.253ZM139.15 63.3876H141.305C142.246 63.3876 142.909 63.244 143.292 62.9566C143.675 62.6533 143.867 62.1745 143.867 61.52C143.867 60.8975 143.699 60.4505 143.364 60.1792C143.029 59.9078 142.446 59.7721 141.616 59.7721H139.15V63.3876ZM139.15 70.0679H141.903C142.733 70.0679 143.332 69.9163 143.699 69.613C144.082 69.2937 144.274 68.7909 144.274 68.1045C144.274 67.3703 144.058 66.8435 143.627 66.5242C143.212 66.189 142.534 66.0214 141.592 66.0214H139.15V70.0679Z" fill="#EEEEEE"/>
<path d="M154.236 72.989C152.895 72.989 151.866 72.6139 151.147 71.8637C150.429 71.0975 150.07 70.012 150.07 68.6073V61.3045H152.895V68.1764C152.895 68.9904 153.047 69.5651 153.35 69.9003C153.669 70.2355 154.212 70.4031 154.978 70.4031C155.425 70.4031 155.848 70.3472 156.247 70.2355C156.646 70.1238 157.046 69.9641 157.445 69.7566V61.3045H160.27V72.7017H158.187L157.947 71.72C157.357 72.167 156.758 72.4942 156.152 72.7017C155.545 72.8933 154.907 72.989 154.236 72.989Z" fill="#EEEEEE"/>
<path d="M169.801 72.989C167.822 72.989 166.266 72.4543 165.132 71.3848C163.999 70.3153 163.432 68.8548 163.432 67.0031C163.432 65.8059 163.68 64.7604 164.175 63.8665C164.669 62.9726 165.356 62.2782 166.234 61.7834C167.112 61.2726 168.133 61.0172 169.299 61.0172C170.432 61.0172 171.414 61.2566 172.244 61.7355C173.09 62.1984 173.744 62.8529 174.207 63.6989C174.67 64.5449 174.901 65.5346 174.901 66.6679C174.901 66.8754 174.893 67.0909 174.877 67.3144C174.862 67.5219 174.83 67.7454 174.782 67.9848H166.306C166.609 69.7247 167.782 70.5947 169.825 70.5947C171.023 70.5947 172.196 70.2275 173.345 69.4933L174.399 71.5764C173.664 72.0712 172.93 72.4303 172.196 72.6538C171.462 72.8773 170.663 72.989 169.801 72.989ZM166.33 65.8538H172.124C171.853 64.2256 170.903 63.4116 169.275 63.4116C167.662 63.4116 166.681 64.2256 166.33 65.8538Z" fill="#EEEEEE"/>
<path d="M178.04 72.7017V61.3045H180.123L180.362 62.2862C180.969 61.8393 181.568 61.52 182.158 61.3285C182.765 61.1209 183.403 61.0172 184.074 61.0172C185.415 61.0172 186.444 61.4003 187.162 62.1665C187.881 62.9167 188.24 63.9942 188.24 65.3989V72.7017H185.415V65.8299C185.415 65.0158 185.255 64.4411 184.936 64.1059C184.632 63.7707 184.098 63.6031 183.331 63.6031C182.885 63.6031 182.462 63.659 182.062 63.7707C181.679 63.8665 181.28 64.0261 180.865 64.2496V72.7017H178.04Z" fill="#EEEEEE"/>
<path d="M196.933 72.989C195.784 72.989 194.77 72.7416 193.892 72.2468C193.015 71.736 192.328 71.0336 191.833 70.1397C191.338 69.2299 191.091 68.1843 191.091 67.0031C191.091 65.8059 191.338 64.7604 191.833 63.8665C192.328 62.9726 193.015 62.2782 193.892 61.7834C194.77 61.2726 195.784 61.0172 196.933 61.0172C198.083 61.0172 199.096 61.2726 199.974 61.7834C200.852 62.2782 201.539 62.9726 202.033 63.8665C202.528 64.7604 202.776 65.8059 202.776 67.0031C202.776 68.1843 202.528 69.2299 202.033 70.1397C201.539 71.0336 200.852 71.736 199.974 72.2468C199.096 72.7416 198.083 72.989 196.933 72.989ZM196.933 70.4031C197.859 70.4031 198.585 70.1078 199.112 69.5172C199.639 68.9106 199.902 68.0726 199.902 67.0031C199.902 65.9336 199.639 65.1036 199.112 64.513C198.585 63.9064 197.859 63.6031 196.933 63.6031C196.008 63.6031 195.281 63.9064 194.754 64.513C194.228 65.1036 193.964 65.9336 193.964 67.0031C193.964 68.0726 194.228 68.9106 194.754 69.5172C195.281 70.1078 196.008 70.4031 196.933 70.4031Z" fill="#EEEEEE"/>
<path d="M220.115 72.7017V57.1383H230.339V59.7721H222.988V63.651H229.189V66.2848H222.988V72.7017H220.115Z" fill="#EEEEEE"/>
<path d="M234.267 72.7017V61.3045H236.47L236.757 62.8848C237.348 62.2303 237.986 61.7594 238.673 61.4721C239.359 61.1688 240.133 61.0172 240.995 61.0172C242.161 61.0172 243.166 61.3205 244.012 61.9271L242.959 64.3693C242.608 64.1139 242.248 63.9303 241.881 63.8186C241.53 63.6909 241.147 63.6271 240.732 63.6271C239.375 63.6271 238.162 64.2815 237.092 65.5904V72.7017H234.267Z" fill="#EEEEEE"/>
<path d="M251.269 72.989C249.88 72.989 248.795 72.6698 248.013 72.0313C247.246 71.3768 246.863 70.467 246.863 69.3017C246.863 68.1843 247.231 67.3303 247.965 66.7397C248.715 66.1491 249.793 65.8538 251.197 65.8538H254.765V65.6383C254.765 64.8402 254.573 64.2735 254.19 63.9383C253.807 63.5871 253.169 63.4116 252.275 63.4116C250.87 63.4116 249.561 63.7627 248.348 64.4651L247.51 62.1904C248.994 61.4083 250.686 61.0172 252.586 61.0172C254.31 61.0172 255.571 61.3763 256.369 62.0947C257.183 62.813 257.59 63.9383 257.59 65.4707V72.7017H255.507L255.268 71.72C254.645 72.167 254.007 72.4942 253.352 72.7017C252.714 72.8933 252.019 72.989 251.269 72.989ZM251.868 70.5947C252.953 70.5947 253.919 70.3552 254.765 69.8764V67.9848H251.461C250.854 67.9848 250.415 68.0886 250.144 68.2961C249.872 68.4876 249.737 68.7909 249.737 69.2059C249.737 69.6688 249.904 70.02 250.239 70.2595C250.591 70.4829 251.133 70.5947 251.868 70.5947Z" fill="#EEEEEE"/>
<path d="M261.375 72.7017V61.3045H263.458L263.698 62.2862C264.304 61.8393 264.903 61.52 265.493 61.3285C266.1 61.1209 266.739 61.0172 267.409 61.0172C268.75 61.0172 269.779 61.4003 270.498 62.1665C271.216 62.9167 271.575 63.9942 271.575 65.3989V72.7017H268.75V65.8299C268.75 65.0158 268.59 64.4411 268.271 64.1059C267.968 63.7707 267.433 63.6031 266.667 63.6031C266.22 63.6031 265.797 63.659 265.398 63.7707C265.015 63.8665 264.615 64.0261 264.2 64.2496V72.7017H261.375Z" fill="#EEEEEE"/>
<path d="M281.226 72.989C279.981 72.989 278.896 72.7496 277.97 72.2707C277.06 71.7759 276.35 71.0815 275.839 70.1876C275.344 69.2937 275.097 68.2322 275.097 67.0031C275.097 65.774 275.344 64.7125 275.839 63.8186C276.35 62.9247 277.06 62.2383 277.97 61.7595C278.896 61.2646 279.981 61.0172 281.226 61.0172C282.711 61.0172 284.068 61.4083 285.297 62.1904L284.315 64.513C283.724 64.1778 283.198 63.9463 282.735 63.8186C282.288 63.6749 281.809 63.6031 281.298 63.6031C279.079 63.6031 277.97 64.7364 277.97 67.0031C277.97 69.2698 279.079 70.4031 281.298 70.4031C281.857 70.4031 282.384 70.3233 282.878 70.1637C283.373 70.0041 283.948 69.7247 284.602 69.3256L285.656 71.5764C284.331 72.5181 282.854 72.989 281.226 72.989Z" fill="#EEEEEE"/>
<path d="M294.158 72.989C293.008 72.989 291.995 72.7416 291.117 72.2468C290.239 71.736 289.553 71.0336 289.058 70.1397C288.563 69.2299 288.316 68.1843 288.316 67.0031C288.316 65.8059 288.563 64.7604 289.058 63.8665C289.553 62.9726 290.239 62.2782 291.117 61.7834C291.995 61.2726 293.008 61.0172 294.158 61.0172C295.307 61.0172 296.321 61.2726 297.199 61.7834C298.077 62.2782 298.763 62.9726 299.258 63.8665C299.753 64.7604 300 65.8059 300 67.0031C300 68.1843 299.753 69.2299 299.258 70.1397C298.763 71.0336 298.077 71.736 297.199 72.2468C296.321 72.7416 295.307 72.989 294.158 72.989ZM294.158 70.4031C295.084 70.4031 295.81 70.1078 296.337 69.5172C296.863 68.9106 297.127 68.0726 297.127 67.0031C297.127 65.9336 296.863 65.1036 296.337 64.513C295.81 63.9064 295.084 63.6031 294.158 63.6031C293.232 63.6031 292.506 63.9064 291.979 64.513C291.452 65.1036 291.189 65.9336 291.189 67.0031C291.189 68.0726 291.452 68.9106 291.979 69.5172C292.506 70.1078 293.232 70.4031 294.158 70.4031Z" fill="#EEEEEE"/>
</svg>
