<svg width="96" height="96" viewBox="0 0 96 96" fill="none" xmlns="http://www.w3.org/2000/svg">
<path d="M12.057 20.0004C11.5269 19.9929 11.0007 20.0908 10.5088 20.2885C10.0169 20.4861 9.56924 20.7796 9.19176 21.1518C8.81428 21.5239 8.51454 21.9674 8.30995 22.4565C8.10536 22.9455 8 23.4703 8 24.0004C8 24.5305 8.10536 25.0553 8.30995 25.5443C8.51454 26.0334 8.81428 26.4769 9.19176 26.849C9.56924 27.2212 10.0169 27.5147 10.5088 27.7123C11.0007 27.91 11.5269 28.0079 12.057 28.0004H84.057C84.587 28.0079 85.1133 27.91 85.6051 27.7123C86.097 27.5147 86.5447 27.2212 86.9222 26.849C87.2997 26.4769 87.5994 26.0334 87.804 25.5443C88.0086 25.0553 88.1139 24.5305 88.1139 24.0004C88.1139 23.4703 88.0086 22.9455 87.804 22.4565C87.5994 21.9674 87.2997 21.5239 86.9222 21.1518C86.5447 20.7796 86.097 20.4861 85.6051 20.2885C85.1133 20.0908 84.587 19.9929 84.057 20.0004H12.057ZM12.057 44.0004C11.5269 43.9929 11.0007 44.0908 10.5088 44.2885C10.0169 44.4861 9.56924 44.7796 9.19176 45.1518C8.81428 45.5239 8.51454 45.9674 8.30995 46.4565C8.10536 46.9455 8 47.4703 8 48.0004C8 48.5305 8.10536 49.0553 8.30995 49.5443C8.51454 50.0334 8.81428 50.4769 9.19176 50.849C9.56924 51.2212 10.0169 51.5147 10.5088 51.7123C11.0007 51.91 11.5269 52.0079 12.057 52.0004H84.057C84.587 52.0079 85.1133 51.91 85.6051 51.7123C86.097 51.5147 86.5447 51.2212 86.9222 50.849C87.2997 50.4769 87.5994 50.0334 87.804 49.5443C88.0086 49.0553 88.1139 48.5305 88.1139 48.0004C88.1139 47.4703 88.0086 46.9455 87.804 46.4565C87.5994 45.9674 87.2997 45.5239 86.9222 45.1518C86.5447 44.7796 86.097 44.4861 85.6051 44.2885C85.1133 44.0908 84.587 43.9929 84.057 44.0004H12.057ZM12.057 68.0004C11.5269 67.9929 11.0007 68.0908 10.5088 68.2885C10.0169 68.4861 9.56924 68.7796 9.19176 69.1518C8.81428 69.5239 8.51454 69.9674 8.30995 70.4565C8.10536 70.9455 8 71.4703 8 72.0004C8 72.5305 8.10536 73.0553 8.30995 73.5443C8.51454 74.0334 8.81428 74.4769 9.19176 74.849C9.56924 75.2212 10.0169 75.5147 10.5088 75.7123C11.0007 75.91 11.5269 76.0079 12.057 76.0004H84.057C84.587 76.0079 85.1133 75.91 85.6051 75.7123C86.097 75.5147 86.5447 75.2212 86.9222 74.849C87.2997 74.4769 87.5994 74.0334 87.804 73.5443C88.0086 73.0553 88.1139 72.5305 88.1139 72.0004C88.1139 71.4703 88.0086 70.9455 87.804 70.4565C87.5994 69.9674 87.2997 69.5239 86.9222 69.1518C86.5447 68.7796 86.097 68.4861 85.6051 68.2885C85.1133 68.0908 84.587 67.9929 84.057 68.0004H12.057Z" fill="#9EB414"/>
</svg>
