<svg width="48" height="48" viewBox="0 0 48 48" fill="none" xmlns="http://www.w3.org/2000/svg">
<g clip-path="url(#clip0_8_76)">
<path d="M38.46 30.52L33.38 29.94C32.16 29.8 30.96 30.22 30.1 31.08L26.42 34.76C20.76 31.88 16.12 27.26 13.24 21.58L16.94 17.88C17.8 17.02 18.22 15.82 18.08 14.6L17.5 9.56002C17.26 7.54002 15.56 6.02002 13.52 6.02002H10.06C7.80002 6.02002 5.92002 7.90002 6.06002 10.16C7.12002 27.24 20.78 40.88 37.84 41.94C40.1 42.08 41.98 40.2 41.98 37.94V34.48C42 32.46 40.48 30.76 38.46 30.52Z" fill="url(#paint0_linear_8_76)"/>
</g>
<defs>
<linearGradient id="paint0_linear_8_76" x1="24.0164" y1="6.02002" x2="24.0164" y2="41.9474" gradientUnits="userSpaceOnUse">
<stop stop-color="#D92390"/>
<stop offset="1" stop-color="#F4A535"/>
</linearGradient>
<clipPath id="clip0_8_76">
<rect width="48" height="48" fill="white"/>
</clipPath>
</defs>
</svg>
